<svg width="851" height="500" viewBox="0 0 851 500" fill="none" xmlns="http://www.w3.org/2000/svg">
<path d="M828.507 483.489C798.889 502.043 678.399 507.564 649.238 486.373C633.239 474.757 618.611 460.212 604.71 446.381C595.006 436.7 583.965 432 575.619 421.498C568.821 412.895 564.145 402.757 556.96 394.294C544.852 380.053 526.193 367.946 511.425 385.339C489.214 411.488 514.929 462.896 485.299 482.446C475.36 489.01 465.339 490.909 452.926 489.971L425.429 491.225C409.266 491.541 383.68 491.682 365.313 488.365C344.802 484.673 327.889 473.468 309.37 465.24C274.184 449.64 240.651 428.378 215.147 398.924C145.736 318.718 52.4972 208.402 16.2799 107.557C8.81378 86.8344 -10.842 45.8233 7.80579 28.0429C33.1696 9.61782 157.703 4.40207 177.113 32.9187C185.012 44.4872 189.982 61.4706 195.561 74.5862C202.5 90.9484 206.274 106.385 217.127 120.872C226.738 133.729 233.841 146.646 241.284 160.746C249.641 176.557 257.517 191.724 267.679 206.293C274.571 216.197 292.797 235.876 304.307 237.353C332.413 240.951 330.655 172.642 328.569 155.952C326.576 139.883 326.049 122.841 326.576 106.537C327.033 92.6361 328.287 73.0507 320.048 61.6933C306.627 43.1744 276.739 57.0401 274.395 32.1569C279.341 25.0893 278.286 18.8186 311.269 7.96519C337.23 -0.57926 354.003 -0.30969 371.127 1.06164C406.055 3.86291 443.081 -5.59576 476.778 5.72652C508.963 16.5683 503.994 62.3145 502.915 89.7411C501.474 127.189 503.009 163.723 502.915 201.71C502.869 219.021 502.189 235.841 523.263 234.446C543.047 233.122 545.052 216.49 554.487 202.753C567.626 183.613 579.663 164.215 593.037 145.134C611.051 119.36 616.478 90.3975 633.438 63.9906C639.51 54.5319 644.725 33.8916 654.067 26.4254C661.146 20.7877 674.578 23.2022 683.134 23.2022H703.482C719.07 23.3897 734.964 23.6124 750.962 24.175C774.017 24.972 799.838 19.9673 822.705 23.1905C921.348 37.1148 698.723 248.124 710.303 285.771C718.32 311.768 769.095 340.894 787.426 362.203C811.864 390.543 886.771 447.026 828.507 483.489Z" fill="#4C75A3"/>
</svg>
